<svg width="32" height="32" viewBox="0 0 32 32" fill="none" xmlns="http://www.w3.org/2000/svg">
<path d="M10.24 1.92C5.65118 1.92 1.91998 5.6512 1.91998 10.24V21.76C1.91998 26.3488 5.65118 30.08 10.24 30.08H21.76C26.3488 30.08 30.08 26.3488 30.08 21.76V10.24C30.08 5.6512 26.3488 1.92 21.76 1.92H10.24ZM23.68 7.04C24.384 7.04 24.96 7.616 24.96 8.32C24.96 9.024 24.384 9.6 23.68 9.6C22.976 9.6 22.4 9.024 22.4 8.32C22.4 7.616 22.976 7.04 23.68 7.04ZM16 8.96C19.8848 8.96 23.04 12.1152 23.04 16C23.04 19.8848 19.8848 23.04 16 23.04C12.1152 23.04 8.95998 19.8848 8.95998 16C8.95998 12.1152 12.1152 8.96 16 8.96ZM16 10.24C12.8256 10.24 10.24 12.8256 10.24 16C10.24 19.1744 12.8256 21.76 16 21.76C19.1744 21.76 21.76 19.1744 21.76 16C21.76 12.8256 19.1744 10.24 16 10.24Z" fill="#ABB2BF"/>
</svg>
