<svg width="18" height="18" viewBox="0 0 18 18" fill="none" xmlns="http://www.w3.org/2000/svg">
<path fill-rule="evenodd" clip-rule="evenodd" d="M17.3368 0.663912C17.5498 0.875912 17.6908 1.14991 17.7408 1.44591C18.0348 3.15691 18.3978 6.64091 16.8348 8.20591C15.0648 9.97391 8.34981 13.7229 6.22381 14.8889C6.03561 14.9918 5.81903 15.0305 5.60685 14.9993C5.39466 14.9681 5.19842 14.8686 5.04781 14.7159L4.16581 13.8359L3.28881 12.9519C3.13604 12.8011 3.03652 12.6047 3.00531 12.3924C2.97409 12.18 3.01288 11.9633 3.11581 11.7749C4.28081 9.64891 8.02881 2.93391 9.79781 1.16391C11.3598 -0.399088 14.8438 -0.0340877 16.5548 0.259912C16.8508 0.309912 17.1248 0.450912 17.3368 0.663912ZM2.40681 4.57591L6.40681 4.23491L3.71681 8.71491L0.859812 8.38091C0.675816 8.35551 0.502588 8.27917 0.359695 8.16051C0.216801 8.04185 0.109935 7.8856 0.0511673 7.7094C-0.00760001 7.5332 -0.015927 7.34408 0.0271269 7.1634C0.0701807 6.98272 0.1629 6.81767 0.294812 6.68691L2.40681 4.57591ZM13.7638 11.5959L13.4238 15.5959L11.3128 17.7089C11.1819 17.8397 11.0172 17.9314 10.8371 17.9737C10.657 18.0161 10.4686 18.0075 10.2932 17.9488C10.1177 17.8901 9.96203 17.7838 9.84363 17.6416C9.72523 17.4994 9.64876 17.3271 9.62281 17.1439L9.20081 14.3369L13.7638 11.5969V11.5959ZM14.6038 5.38591C14.6038 5.91369 14.3942 6.41986 14.021 6.79305C13.6478 7.16625 13.1416 7.37591 12.6138 7.37591C12.086 7.37591 11.5799 7.16625 11.2067 6.79305C10.8335 6.41986 10.6238 5.91369 10.6238 5.38591C10.6238 4.85813 10.8335 4.35197 11.2067 3.97877C11.5799 3.60557 12.086 3.39591 12.6138 3.39591C13.1416 3.39591 13.6478 3.60557 14.021 3.97877C14.3942 4.35197 14.6038 4.85813 14.6038 5.38591Z" fill="white"/>
</svg>
